<?xml version="1.0" encoding="UTF-8"?>
<svg height="16px" viewBox="0 0 16 16" width="16px" xmlns="http://www.w3.org/2000/svg">
    <path d="m 0.558594 7.804688 c 0 6.671874 8.066406 10.011718 12.78125 5.292968 c 4.71875 -4.71875 1.378906 -12.78125 -5.292969 -12.78125 c -4.132813 0.003906 -7.484375 3.351563 -7.488281 7.488282 z m 1.359375 0 c 0 -5.460938 6.601562 -8.191407 10.460937 -4.332032 s 1.125 10.457032 -4.332031 10.457032 c -3.382813 -0.003907 -6.125 -2.746094 -6.128906 -6.125 z m 0 0"/>
    <path d="m 11.757812 6.6875 v -1.585938 c 0 -1.058593 -1.585937 -1.058593 -1.585937 0 v 1.585938 c 0 1.058594 1.585937 1.058594 1.585937 0 z m -7.136718 -1.585938 h 2.378906 c 1.058594 0 1.058594 1.585938 0 1.585938 h -2.378906 c -1.058594 0 -1.058594 -1.585938 0 -1.585938 z m 0 0"/>
    <path d="m 12.042969 8.992188 c -0.246094 -0.023438 -0.492188 0.101562 -0.621094 0.355468 c -0.433594 0.855469 -1.035156 1.011719 -1.613281 0.949219 c -0.574219 -0.0625 -1.121094 -0.398437 -1.246094 -0.503906 c -0.5625 -0.507813 -1.238281 -0.761719 -1.910156 -0.78125 c -0.222656 -0.007813 -0.449219 0.011719 -0.667969 0.054687 c -0.871094 0.171875 -1.671875 0.742188 -2.109375 1.664063 c -0.09375 0.191406 -0.101562 0.40625 -0.039062 0.574219 c 0.0625 0.171874 0.183593 0.292968 0.320312 0.371093 c 0.136719 0.074219 0.296875 0.105469 0.457031 0.066407 c 0.15625 -0.039063 0.3125 -0.15625 0.410157 -0.34375 c 0 -0.003907 0.003906 -0.007813 0.003906 -0.011719 c 0.472656 -1.058594 1.855468 -1.339844 2.722656 -0.527344 c 0.003906 0.003906 0.003906 0.007813 0.007812 0.007813 c 0.675782 0.574218 1.597657 0.914062 2.5 0.839843 c 0.902344 -0.074219 1.785157 -0.582031 2.308594 -1.695312 c 0.171875 -0.335938 0.03125 -0.769531 -0.277344 -0.941407 c -0.078124 -0.042968 -0.160156 -0.066406 -0.246093 -0.078124 z m 0 0"/>
</svg>
