<svg xmlns="http://www.w3.org/2000/svg" height="800" width="1200" viewBox="-9.0003 -14.37515 78.0026 86.2509"><defs><radialGradient r="2.5" gradientTransform="matrix(2.0038 0 0 1.4 27.988 -17.4)" cx="4.993" cy="43.5" gradientUnits="userSpaceOnUse" id="a"><stop offset="0" stop-color="#181818"/><stop offset="1" stop-opacity="0" stop-color="#181818"/></radialGradient><radialGradient r="2.5" gradientTransform="matrix(2.0038 0 0 1.4 -20.012 -104.4)" cx="4.993" cy="43.5" gradientUnits="userSpaceOnUse" id="b"><stop offset="0" stop-color="#181818"/><stop offset="1" stop-opacity="0" stop-color="#181818"/></radialGradient><radialGradient r="12.672" gradientTransform="matrix(0 13.394 -16.444 0 194.9 -118.89)" cx="6.73" cy="9.957" gradientUnits="userSpaceOnUse" fx="6.2" id="d"><stop offset="0" stop-color="#bd94e7"/><stop offset=".262" stop-color="#7b6ca3"/><stop offset=".705" stop-color="#574a76"/><stop offset="1" stop-color="#3f3654"/></radialGradient><linearGradient x1="25.058" y1="47.028" x2="25.058" gradientUnits="userSpaceOnUse" y2="39.999" id="c"><stop offset="0" stop-opacity="0" stop-color="#181818"/><stop offset=".5" stop-color="#181818"/><stop offset="1" stop-opacity="0" stop-color="#181818"/></linearGradient><linearGradient x1="24" y1="5" gradientTransform="matrix(1.4324 0 0 1.4363 -4.378 -6.47)" x2="24" gradientUnits="userSpaceOnUse" y2="43" id="e"><stop offset="0" stop-color="#fff"/><stop offset=".063" stop-opacity=".235" stop-color="#fff"/><stop offset=".951" stop-opacity=".157" stop-color="#fff"/><stop offset="1" stop-opacity=".392" stop-color="#fff"/></linearGradient></defs><g opacity=".6"><path transform="matrix(1.579 0 0 .71429 -7.895 23.929)" d="M38 40h5v7h-5z" fill="url(#a)"/><path d="M-10-47h5v7h-5z" fill="url(#b)" transform="matrix(-1.579 0 0 -.71429 -7.895 23.929)"/><path transform="matrix(1.579 0 0 .71429 -7.895 23.929)" d="M10 40h28v7H10z" fill="url(#c)"/></g><rect color="#000" fill="url(#d)" x="2.5" y=".5" width="55" height="55" ry="3" rx="3"/><rect fill="none" x="3.5" y="1.429" stroke-linecap="round" stroke="url(#e)" width="53" height="53.142" ry="2" rx="2" stroke-linejoin="round" opacity=".3"/><rect color="#000" fill="none" x="2.5" y=".5" stroke-linecap="round" stroke="#05020d" width="55" height="55" ry="3" rx="3" stroke-linejoin="round" opacity=".5"/><path color="#000" fill="#201c2c" d="M29.462 11.984c-1.35 0-2.705.166-4.06.493-1.335.31-2.624.752-3.866 1.326a20.767 20.767 0 00-3.467 2.002 1.016 1.016 0 00-.005.004 17.304 17.304 0 00-2.844 2.562 1.016 1.016 0 00-.006.008 12.544 12.544 0 00-1.95 3.012 1.016 1.016 0 00-.005.011 8.348 8.348 0 00-.729 3.373c0 .912.11 1.722.373 2.434a1.016 1.016 0 00.008.021c.272.69.68 1.293 1.217 1.75a1.016 1.016 0 00.014.012c.54.444 1.188.754 1.908.947a1.016 1.016 0 00.023.006c.702.171 1.473.252 2.32.252a1.016 1.016 0 001.016-1.015c0-.376-.132-.636-.266-.85l.047.084a4.014 4.014 0 01-.148-.371c0-.001-.002 0-.002-.002a7.263 7.263 0 01-.178-.703 8.528 8.528 0 01-.072-1.236c0-2.366.542-4.247 1.588-5.75.797-1.131 1.9-1.962 3.17-2.653l.691 29.322a1.016 1.016 0 001.016.992h6.53a1.016 1.016 0 00.952-.66l12.594-33.779a1.016 1.016 0 00-.951-1.37h-3.164a1.016 1.016 0 00-.961.685l-7.649 22.25-.314-22.066a1.016 1.016 0 00-.914-.996 18.86 18.86 0 00-.934-.07h-.002a18.748 18.748 0 00-.98-.024z" style="isolation:auto;mix-blend-mode:normal" opacity=".15"/><path color="#000" fill="#201c2c" opacity=".3" d="M25.255 46.999l-.73-30.967q-3.188 1.195-4.98 3.74-1.772 2.546-1.772 6.331 0 .863.089 1.417.11.531.221.863.111.31.2.487.11.177.11.31-1.173 0-2.08-.221-.908-.244-1.528-.753-.598-.508-.93-1.35-.31-.84-.31-2.08 0-1.505.641-2.966.664-1.46 1.793-2.767 1.151-1.305 2.679-2.412 1.55-1.107 3.298-1.904 1.77-.819 3.674-1.261Q27.556 13 29.46 13q.509 0 .93.022.442.022.884.066l.399 27.89 9.54-27.758h3.165L31.784 47h-6.53z" style="isolation:auto;mix-blend-mode:normal"/><path fill="#fff" d="M25.255 45.999l-.73-30.967q-3.188 1.195-4.98 3.74-1.772 2.546-1.772 6.331 0 .863.089 1.417.11.531.221.863.111.31.2.487.11.177.11.31-1.173 0-2.08-.221-.908-.244-1.528-.753-.598-.508-.93-1.35-.31-.84-.31-2.08 0-1.505.641-2.966.664-1.46 1.793-2.767 1.151-1.305 2.679-2.412 1.55-1.107 3.298-1.904 1.77-.819 3.674-1.261Q27.556 12 29.46 12q.509 0 .93.022.442.022.884.066l.399 27.89 9.54-27.758h3.165L31.784 46h-6.53z"/></svg>