<?xml version="1.0" encoding="UTF-8"?>
<svg height="128px" viewBox="0 0 128 128" width="128px" xmlns="http://www.w3.org/2000/svg">
    <path d="m 62.964844 7.175781 c -25.328125 0 -45.863282 20.535157 -45.863282 45.863281 l 0.167969 4.042969 c 0.003907 22.535157 5.445313 34.007813 -7.886719 33.6875 c -1.566406 -0.039062 -3.371093 0.605469 -3.992187 1.324219 c -0.566406 0.648438 -0.570313 2.324219 -0.007813 2.96875 c 0.738282 0.851562 1.601563 0.980469 6.554688 1 c 4.210938 0.015625 8.363281 -0.484375 9.488281 -0.070312 c 2.148438 0.792968 2.695313 2.320312 1.292969 3.609374 c -3.59375 2.621094 -9.113281 0.867188 -13.316406 0.832032 c -5.15625 0.015625 -6.414063 0.226562 -7.851563 1.335937 c -0.867187 0.671875 -1.019531 2.027344 -0.320312 2.832031 c 0.53125 0.613282 2.082031 1.25 3.472656 1.429688 c 2.394531 0.304688 17.589844 1.117188 20.980469 1.144531 c 8.160156 0.070313 9.320312 0.773438 9.320312 3.171875 c 0 1.003906 -0.617187 1.683594 -1.984375 2.183594 c -1 0.367188 -3.621093 0.523438 -6.75 0.484375 c -6.464843 0.027344 -9.625 0.214844 -11.011719 0.910156 c -2.03125 1.019531 -2.261718 3.195313 -0.277343 4.125 c 1.246093 0.582031 4.203125 1.023438 6.902343 1.027344 c 3.132813 0.003906 11.410157 -0.171875 16.070313 1.148437 c 8.042969 2.277344 11.378906 -2.804687 17.082031 -2.5 c 4.40625 0.234376 6.265625 2.574219 9.511719 2.449219 c 9.933594 -0.371093 12.140625 -4.011719 15.136719 -4.035156 c 5.703125 -0.042969 6.492187 2.027344 9.320312 2.6875 c 5.660156 1.316406 7.722656 1.167969 12.402344 0.902344 c 4.675781 -0.269531 5.972656 -0.503907 6.777344 -1.753907 c 0.800781 -1.25 -1.226563 -2.828124 -2.980469 -3.585937 c -1.75 -0.757813 -3.632813 -1.039063 -5.695313 -1.039063 c -4.042968 0 -5.164062 -4.261718 9.316407 -1.949218 c 4.882812 0.78125 13.691406 -0.472656 15.832031 -1.625 s 2.414062 -2.574219 2.429688 -4.257813 c 0.109374 -3.878906 -3.386719 -4.242187 -6.300782 -4.515625 c -4.941406 0 -9.402344 -0.351562 -8.117187 -4.816406 c 0.359375 -1.253906 5.136719 -1.257812 7.339843 -1.347656 c 2.683594 -0.113282 4.691407 -0.539063 4.335938 -3.554688 c -0.324219 -2.730468 -9.210938 -0.496094 -11.914062 -3.566406 c -1.703126 -1.9375 -5.238282 -2.5 -3.757813 -32.15625 c 0.035156 -0.675781 0.113281 -1.738281 0.15625 -2.523438 c 0 -25.328124 -20.535156 -45.863281 -45.863281 -45.863281 z m 0 0" fill="#f5c211"/>
    <path d="m 82.160156 44.507812 c 0 1.667969 -1.570312 3.023438 -3.503906 3.023438 s -3.503906 -1.355469 -3.503906 -3.023438 c 0 -1.667968 1.570312 -3.023437 3.503906 -3.023437 s 3.503906 1.355469 3.503906 3.023437 z m 0 0" fill="#3d3846"/>
    <path d="m 83.378906 56.515625 c -10.332031 0.816406 -14.757812 -15.496094 -5.167968 -19.039063 c 10.199218 -3.769531 17.503906 14.058594 7.546874 18.410157 c -0.679687 0.296875 -1.746093 0.578125 -2.378906 0.628906 z m -2.636718 -11.054687 c 0.425781 -0.96875 -0.03125 -2.476563 -1.003907 -3.300782 c -1.351562 -1.148437 -3.640625 0.179688 -3.75 2.179688 c -0.183593 3.226562 3.453125 4.085937 4.753907 1.121094 z m 0 0" fill="#241f31"/>
    <path d="m 61.945312 39.257812 c -3.828124 -4.652343 13.683594 -15.316406 23.050782 -14.039062 c 4.140625 0.5625 3.140625 4.132812 -1.355469 4.847656 c -6.148437 0.980469 -12.613281 4.171875 -17.128906 8.460938 c -2.023438 1.921875 -3.402344 2.144531 -4.566407 0.730468 z m 0 0" fill="#241f31"/>
    <path d="m 50.160156 54.542969 c 0 1.894531 -1.78125 3.429687 -3.980468 3.429687 c -2.195313 0 -3.976563 -1.535156 -3.976563 -3.429687 c 0 -1.898438 1.78125 -3.433594 3.976563 -3.433594 c 2.199218 0 3.980468 1.535156 3.980468 3.433594 z m 0 0" fill="#3d3846"/>
    <g fill="#241f31">
        <path d="m 44.503906 66.996094 c -5.449218 -2.796875 -6.296875 -11.632813 -1.5 -15.640625 c 1.316406 -1.097657 1.613282 -0.800781 -4.167968 -4.171875 c -4.484376 -2.613282 -5.210938 -5.460938 -1.777344 -6.980469 c 2.3125 -1.023437 13.519531 5.210937 20.070312 11.167969 c 2.914063 2.648437 2.867188 5.355468 -0.117187 6.484375 c -0.914063 0.34375 -0.9375 0.394531 -1.003907 2.121093 c -0.226562 5.828126 -6.441406 9.621094 -11.503906 7.019532 z m 2.910156 -10.183594 c 1.496094 -1.230469 1.710938 -3.828125 0.382813 -4.605469 c -2.730469 -1.601562 -5.917969 2.441407 -3.652344 4.636719 c 0.828125 0.808594 2.269531 0.792969 3.269531 -0.03125 z m 0 0"/>
        <path d="m 94.546875 62.246094 c -1.132813 -0.007813 -2.164063 0.671875 -2.425781 2.152344 c -2.117188 11.882812 -16.835938 13.0625 -21.5625 13.132812 c -20.367188 0.300781 -32.050782 8.53125 -29.589844 20.839844 c 0.722656 3.605468 5.621094 4.398437 6.261719 1.015625 c 2.226562 -11.746094 17.515625 -13.042969 22.964843 -13.128907 c 19.144532 -0.300781 30.125 -8.53125 27.8125 -20.839843 c -0.382812 -2.027344 -2.003906 -3.167969 -3.460937 -3.171875 z m 0 0"/>
    </g>
</svg>
